<svg xmlns="http://www.w3.org/2000/svg" width="500" height="500" fill="none" viewBox="0 0 500 500"><path fill="#00ACC1" d="M251.54 168.49c-25.85-6.47-40.88-42.84-89.37-58.05C132 101 67.23 115.82 59.49 184c-6.65 58.61 47.09 152.49 146.41 176.91 98.88 24.31 200.63-7.95 228.18-89.55C453.09 215 416 162.73 372.28 155c-58.93-10.4-91.28 20.86-120.74 13.49Z"/><path fill="#fff" d="M251.54 168.49c-25.85-6.47-40.88-42.84-89.37-58.05C132 101 67.23 115.82 59.49 184c-6.65 58.61 47.09 152.49 146.41 176.91 98.88 24.31 200.63-7.95 228.18-89.55C453.09 215 416 162.73 372.28 155c-58.93-10.4-91.28 20.86-120.74 13.49Z" opacity=".9"/><path fill="#F5F5F5" d="M245.18 423.71c107.083 0 193.89-5.068 193.89-11.32 0-6.252-86.807-11.32-193.89-11.32-107.082 0-193.89 5.068-193.89 11.32 0 6.252 86.808 11.32 193.89 11.32Z"/><path fill="#263238" d="M375.181 410.97h-4.79l-1.05-73.08h6.89l-1.05 73.08Z"/><path fill="#fff" d="M375.181 410.97h-4.79l-1.05-73.08h6.89l-1.05 73.08Z" opacity=".5"/><path fill="#263238" d="M332.88 410.97h-4.8l-1.04-73.08h6.89l-1.05 73.08Z"/><path fill="#fff" d="M332.88 410.97h-4.8l-1.04-73.08h6.89l-1.05 73.08Z" opacity=".5"/><path fill="#263238" d="M323.061 410.97h-4.79l-1.05-73.08h6.89l-1.05 73.08Z"/><path fill="#fff" d="M323.061 410.97h-4.79l-1.05-73.08h6.89l-1.05 73.08Z" opacity=".5"/><path fill="#263238" d="M280.76 410.97h-4.8l-1.04-73.08h6.89l-1.05 73.08Z"/><path fill="#fff" d="M280.76 410.97h-4.8l-1.04-73.08h6.89l-1.05 73.08Z" opacity=".5"/><path fill="#00ACC1" d="M352.2 339.57h-77.75a6.413 6.413 0 0 1-6.41-6.41v-8.54a6.411 6.411 0 0 1 6.41-6.4h68.84l5.93-56.42a13.836 13.836 0 0 1 13.44-12.16h28.89l-6.9 21.06-6.3 47.17-4.43 13.18-21.72 8.52Z"/><path fill="#000" d="M352.2 339.57h-77.75a6.413 6.413 0 0 1-6.41-6.41v-8.54a6.411 6.411 0 0 1 6.41-6.4h68.84l5.93-56.42a13.836 13.836 0 0 1 13.44-12.16h28.89l-6.9 21.06-6.3 47.17-4.43 13.18-21.72 8.52Z" opacity=".2"/><path fill="#00ACC1" d="M393.94 249.64h-5.77a13.833 13.833 0 0 0-13.43 12.16l-5.93 56.42h-42.42a6.41 6.41 0 0 0-6.4 6.4v8.54a6.407 6.407 0 0 0 6.4 6.41h51.32a7.877 7.877 0 0 0 7.84-7.06l6.72-63.94a10.736 10.736 0 0 0 10.5-10.05 8.724 8.724 0 0 0-2.535-6.309 8.72 8.72 0 0 0-6.295-2.571Z"/><path fill="#EBB376" d="m282.42 380.78 3.33 21.76 6.87-.59-.96-21.96-9.24.79Z"/><path fill="#263238" d="M292.86 393.44s.33 5.62 1.68 8.42c1.35 2.8 3.22 6.52-1.35 6.93-2.7.24-7.42 1.36-12.59 1.86-3.57.34-8.46 0-8.63-1.89-.2-2.19 12.46-6.78 12.41-8.89-.05-2.11-.62-5.75-.62-5.75l9.1-.68Z"/><path fill="#fff" d="M292.86 393.44s.33 5.62 1.68 8.42c1.35 2.8 3.22 6.52-1.35 6.93-2.7.24-7.42 1.36-12.59 1.86-3.57.34-8.46 0-8.63-1.89-.2-2.19 12.46-6.78 12.41-8.89-.05-2.11-.62-5.75-.62-5.75l9.1-.68Z" opacity=".1"/><path fill="#00ACC1" d="m327.191 277.27-1.86 15.48s-52.83 4.64-55.84 17.85c-2.85 12.56 12.74 76.33 12.74 76.33l10.55-1.05s1.47-49.31-3.15-66.9c0 0 40.16-.3 53.55 0 6 .14 21.39-.06 17.58-17.56-4.34-20-8.93-24.15-8.93-24.15l-.16-8.76h-24l-.48 8.76Z"/><path fill="#fff" d="m327.191 277.27-1.86 15.48s-52.83 4.64-55.84 17.85c-2.85 12.56 12.74 76.33 12.74 76.33l10.55-1.05s1.47-49.31-3.15-66.9c0 0 40.16-.3 53.55 0 6 .14 21.39-.06 17.58-17.56-4.34-20-8.93-24.15-8.93-24.15l-.16-8.76h-24l-.48 8.76Z" opacity=".2"/><path fill="#00ACC1" d="m281.21 387.2.88 2.59a1.121 1.121 0 0 0 1.15.74l9.21-.85a1.096 1.096 0 0 0 1-1l.17-2.68a1.103 1.103 0 0 0-.742-1.102 1.11 1.11 0 0 0-.468-.058l-10.26.94a1.101 1.101 0 0 0-.94 1.42Z"/><path fill="#fff" d="m281.21 387.2.88 2.59a1.121 1.121 0 0 0 1.15.74l9.21-.85a1.096 1.096 0 0 0 1-1l.17-2.68a1.103 1.103 0 0 0-.742-1.102 1.11 1.11 0 0 0-.468-.058l-10.26.94a1.101 1.101 0 0 0-.94 1.42Z" opacity=".6"/><path fill="#EBB376" d="m302.66 380.34 1.47 21.97h6.89l.92-21.97h-9.28Z"/><path fill="#263238" d="M311.81 395.65s-.18 5.63.92 8.54c1.1 2.91 2.63 6.78-2 6.78-2.7 0-7.49.06-12.6-.32-3.58-.26-8.53.32-8.53-1.61 0-2.2 13.39-5.77 13.52-7.87.13-2.1 0-5.64 0-5.64l8.69.12Z"/><path fill="#00ACC1" d="m335.46 277.27-1.69 15.48s-32.86 4.47-38.13 12.34c-5.27 7.87 7.11 85.31 7.11 85.31h9.19c6.56-43 3.15-71.48 3.15-71.48h41.21c26.25 0 2.89-41.65 2.89-41.65l.1-9.2-24.29 1.4.46 7.8Z"/><path fill="#fff" d="m335.46 277.27-1.69 15.48s-32.86 4.47-38.13 12.34c-5.27 7.87 7.11 85.31 7.11 85.31h9.19c6.56-43 3.15-71.48 3.15-71.48h41.21c26.25 0 2.89-41.65 2.89-41.65l.1-9.2-24.29 1.4.46 7.8Z" opacity=".3"/><path fill="#00ACC1" d="m301.071 388.9.69 2.83a1 1 0 0 0 1 .77h9.15a1.002 1.002 0 0 0 1-.79l.61-2.84a1.005 1.005 0 0 0-.202-.854 1 1 0 0 0-.798-.366h-10.46a.996.996 0 0 0-.806.379.999.999 0 0 0-.184.871Z"/><path fill="#fff" d="m301.071 388.9.69 2.83a1 1 0 0 0 1 .77h9.15a1.002 1.002 0 0 0 1-.79l.61-2.84a1.005 1.005 0 0 0-.202-.854 1 1 0 0 0-.798-.366h-10.46a.996.996 0 0 0-.806.379.999.999 0 0 0-.184.871Z" opacity=".6"/><path fill="#EBB376" d="m288.27 268.44-7.44 1.45-7-2.05a5.714 5.714 0 0 0-5.2 2.05 6.694 6.694 0 0 0-1.56 4.32v.27h14.39l7.81-1.05-1-4.99Z"/><path fill="#00ACC1" d="M328.471 225.411a1.741 1.741 0 0 0-3-1.14c-2.4 2.36-5.85 5.13-7.46 20-2.07 19.15-34 23.9-34 23.9l1.52 7s23.52.8 33.26-9.36c12.6-13.05 10.76-32.64 9.68-40.4Z"/><path fill="#fff" d="M328.471 225.411a1.741 1.741 0 0 0-3-1.14c-2.4 2.36-5.85 5.13-7.46 20-2.07 19.15-34 23.9-34 23.9l1.52 7s23.52.8 33.26-9.36c12.6-13.05 10.76-32.64 9.68-40.4Z" opacity=".2"/><path fill="#263238" d="M357.09 194.5c-2.89-19.37-19.2-12.39-19.2-12.39-10.54 3.8-7 16.89-7 24 0 7.11-.9 9.57-.9 9.57 1.22-.27 2.35-.5 3.44-.72l.38-2.23.66 2c8.86-1.69 13.64-1.67 16.22-1.13a14.997 14.997 0 0 0 1.55-4.22s1.26.82 0 4.7c1.53.69 1.46 1.58 1.46 1.58s6.3-1.79 3.39-21.16Z"/><path fill="#00ACC1" d="m367.11 223.16-38.11-.45a3.756 3.756 0 0 0-3.75 3.09c-4.5 24.88-1.43 24-1.43 24l1.92 30.45H330a5.384 5.384 0 0 0 5.29-4.33l.43-2.14 1.13 3a5.393 5.393 0 0 0 5 3.49h19.45c-2.26-23.38 5.15-45.94 7.73-54.37a2.084 2.084 0 0 0-.992-2.489 2.09 2.09 0 0 0-.928-.251Z"/><path fill="#fff" d="m367.11 223.16-38.11-.45a3.756 3.756 0 0 0-3.75 3.09c-4.5 24.88-1.43 24-1.43 24l1.92 30.45H330a5.384 5.384 0 0 0 5.29-4.33l.43-2.14 1.13 3a5.393 5.393 0 0 0 5 3.49h19.45c-2.26-23.38 5.15-45.94 7.73-54.37a2.084 2.084 0 0 0-.992-2.489 2.09 2.09 0 0 0-.928-.251Z" opacity=".4"/><path fill="#00ACC1" d="m283 268.06 1.41 7.38a1.076 1.076 0 0 0 1.1.87l1.42-.06a1.05 1.05 0 0 0 .772-.387 1.058 1.058 0 0 0 .228-.833l-1.17-7.86a1.065 1.065 0 0 0-.492-.759 1.062 1.062 0 0 0-.898-.111l-1.67.54a1.083 1.083 0 0 0-.7 1.22Z"/><path fill="#fff" d="m283 268.06 1.41 7.38a1.076 1.076 0 0 0 1.1.87l1.42-.06a1.05 1.05 0 0 0 .772-.387 1.058 1.058 0 0 0 .228-.833l-1.17-7.86a1.065 1.065 0 0 0-.492-.759 1.062 1.062 0 0 0-.898-.111l-1.67.54a1.083 1.083 0 0 0-.7 1.22Z" opacity=".6"/><path fill="#EBB376" d="M349 204.66c-.56 5.1-.74 14.36 3.06 17.4 0 0-1.45 5.15-11.22 6.11-6.94-3.06-4.36-4.76-4.36-4.76 5.47-1.85 6-5.95 4.76-9.76l7.76-8.99Z"/><path fill="#000" d="m348.141 210.33-2-.52-2.48 1-2.44 2.82c.328.968.513 1.979.55 3 5.38-.82 6.37-6.3 6.37-6.3Z" opacity=".1"/><path fill="#EBB376" d="M352.58 193.39c.24 8.41.53 12-3.3 16.64-5.77 7-16.15 5.5-18.91-2.67-2.48-7.35-2.47-19.86 5.41-23.94a11.491 11.491 0 0 1 16.8 10v-.03Z"/><path fill="#EBB376" d="M355.161 199.82a6.143 6.143 0 0 1-2.62 3.9c-1.81 1.18-3.36-.28-3.4-2.33 0-1.83.87-4.66 2.94-5a2.782 2.782 0 0 1 3.08 3.45v-.02Z"/><path fill="#D58745" d="M334.57 198.56a18.663 18.663 0 0 1-2 4.57 2.907 2.907 0 0 0 2.46.24l-.46-4.81Z"/><path fill="#2E353A" d="M340.221 193.75a.3.3 0 0 0 .15-.1.34.34 0 0 0 0-.47 3.881 3.881 0 0 0-3.44-1 .337.337 0 0 0-.09.613.327.327 0 0 0 .25.037 3.277 3.277 0 0 1 2.84.87.34.34 0 0 0 .139.057c.05.009.102.007.151-.007ZM328.48 194.5a.396.396 0 0 1-.16-.07.325.325 0 0 1-.084-.1.323.323 0 0 1-.028-.255.338.338 0 0 1 .062-.115 3.908 3.908 0 0 1 3.27-1.5.338.338 0 0 1 .29.37.333.333 0 0 1-.12.219.331.331 0 0 1-.24.071 3.275 3.275 0 0 0-2.69 1.27.314.314 0 0 1-.3.11ZM339.271 197c.07.68-.25 1.26-.7 1.31-.45.05-.85-.47-.91-1.16-.06-.69.25-1.26.69-1.31.44-.05.86.47.92 1.16ZM331.571 197.7c.07.67-.25 1.26-.69 1.3-.44.04-.85-.48-.92-1.16-.07-.68.25-1.26.69-1.3.44-.04.87.46.92 1.16Z"/><path fill="#2E353A" d="m330.851 196.55-1.67-.32s.95 1.2 1.67.32ZM338.551 195.85l-1.67-.32s.95 1.2 1.67.32Z"/><path fill="#263238" d="M334.61 206.07a6.803 6.803 0 0 0 5.64-1.93s2.5 4.55-4.24 5.29a5.992 5.992 0 0 0-1.4-3.36Z"/><path fill="#fff" d="m335.21 206.12.49 1s3.18 0 4.87-2.19a4.745 4.745 0 0 0-.32-.83 6.768 6.768 0 0 1-5.04 2.02Z"/><path fill="#DE5753" d="M336.471 209.36c3.3-.48 4.16-2 4.23-3.22-3.26.86-4.05 2.49-4.23 3.22Z"/><path fill="#263238" d="M337.891 186.7a8.14 8.14 0 0 1-6.06 4.2c-4.54.79-2.92 12.64-2.92 12.64s-9.81-23.92 11.55-22.22l-2.57 5.38Z"/><path fill="#263238" d="M341.001 181.78a2.613 2.613 0 0 0-2.078.403 2.632 2.632 0 0 0-1.102 1.807c-.25 2 .17 4.5 3.4 5.54 5.71 1.83 5.18 7.87 5.18 7.87l1-4.48s.32 6.4 3.54 5.64c3.22-.76 3.54-6.8 3.54-6.8l-5.32-8.14-8.16-1.84Z"/><path fill="#00ACC1" d="M337.38 221.77a.429.429 0 0 1 .58.5c-.38 1.65-.71 5.23 3.64 5.23s8.26-3.55 9.93-5.26a1.854 1.854 0 0 1 2-.43l1.14.45a.89.89 0 0 1 .43 1.29c-1.93 3.2-8.85 13.4-14.44 5.13 0 0-3.25 5-5.25.53a8.372 8.372 0 0 1-.45-5.36 2.49 2.49 0 0 1 1.54-1.75l.88-.33Z"/><path fill="#fff" d="M337.38 221.77a.429.429 0 0 1 .58.5c-.38 1.65-.71 5.23 3.64 5.23s8.26-3.55 9.93-5.26a1.854 1.854 0 0 1 2-.43l1.14.45a.89.89 0 0 1 .43 1.29c-1.93 3.2-8.85 13.4-14.44 5.13 0 0-3.25 5-5.25.53a8.372 8.372 0 0 1-.45-5.36 2.49 2.49 0 0 1 1.54-1.75l.88-.33Z" opacity=".6"/><path fill="#263238" d="M317.81 227.82a1.245 1.245 0 0 1 1.43-.059 1.242 1.242 0 0 1 .533 1.328 1.241 1.241 0 0 1-.593.791l-18.09 12a1.226 1.226 0 0 1-.927.18 1.233 1.233 0 0 1-.962-1.457c.065-.321.256-.602.529-.783l18.08-12Z"/><path fill="#fff" d="M317.81 227.82a1.245 1.245 0 0 1 1.43-.059 1.242 1.242 0 0 1 .533 1.328 1.241 1.241 0 0 1-.593.791l-18.09 12a1.226 1.226 0 0 1-.927.18 1.233 1.233 0 0 1-.962-1.457c.065-.321.256-.602.529-.783l18.08-12Z" opacity=".6"/><path fill="#263238" d="M299.731 239.79a8.657 8.657 0 0 0-1.44 2 .387.387 0 0 0 .015.411.383.383 0 0 0 .375.169 8.667 8.667 0 0 0 2.41-.53 1.236 1.236 0 0 0 .35-1.71 1.254 1.254 0 0 0-.783-.529 1.236 1.236 0 0 0-.927.179v.01Z"/><path fill="#fff" d="M299.731 239.79a8.657 8.657 0 0 0-1.44 2 .387.387 0 0 0 .015.411.383.383 0 0 0 .375.169 8.667 8.667 0 0 0 2.41-.53 1.236 1.236 0 0 0 .35-1.71 1.254 1.254 0 0 0-.783-.529 1.236 1.236 0 0 0-.927.179v.01Z" opacity=".8"/><path fill="#EBB376" d="m324.71 247.78-7.89-5.53-1.82-7.57a3.996 3.996 0 0 0-3-3 4 4 0 0 0-4.64 2.52l-.61 1.64a4.075 4.075 0 0 0-.25 1.39v1.39c0 1 .375 1.963 1.05 2.7l1.08 1.18c.29.315.627.581 1 .79l4.68 2.61 7.39 7.38 3.01-5.5Z"/><path fill="#00ACC1" d="M365.06 225.36a3.053 3.053 0 0 1 5.16-1c1.67 2.06 2.63 6-.22 13.77-5.69 15.45-14.75 27.58-26.1 27.58-13.46 0-27.08-15.58-27.08-15.58l4.72-5.56s13.67 9.27 22.79 9.27c5.21.04 13.67-10.08 20.73-28.48Z"/><path fill="#fff" d="M365.06 225.36a3.053 3.053 0 0 1 5.16-1c1.67 2.06 2.63 6-.22 13.77-5.69 15.45-14.75 27.58-26.1 27.58-13.46 0-27.08-15.58-27.08-15.58l4.72-5.56s13.67 9.27 22.79 9.27c5.21.04 13.67-10.08 20.73-28.48Z" opacity=".2"/><path fill="#00ACC1" d="m315.64 249.56 5.32-6.42a.552.552 0 0 1 .75-.09l2.28 1.66a.56.56 0 0 1 .225.379.56.56 0 0 1-.125.421l-6 7.21a.541.541 0 0 1-.457.203.55.55 0 0 1-.433-.253l-1.62-2.45a.564.564 0 0 1 .06-.66Z"/><path fill="#fff" d="m315.64 249.56 5.32-6.42a.552.552 0 0 1 .75-.09l2.28 1.66a.56.56 0 0 1 .225.379.56.56 0 0 1-.125.421l-6 7.21a.541.541 0 0 1-.457.203.55.55 0 0 1-.433-.253l-1.62-2.45a.564.564 0 0 1 .06-.66Z" opacity=".6"/><path fill="#263238" d="M340.2 181.24h-1.87v.07a14.004 14.004 0 0 1 8.942 4.553 14.006 14.006 0 0 1 3.598 9.367h3.32a14.001 14.001 0 0 0-13.99-13.99Z"/><path fill="#fff" d="M340.2 181.24h-1.87v.07a14.004 14.004 0 0 1 8.942 4.553 14.006 14.006 0 0 1 3.598 9.367h3.32a14.001 14.001 0 0 0-13.99-13.99Z" opacity=".6"/><path fill="#00ACC1" d="M352.58 206.15c2.507 0 4.54-2.717 4.54-6.07 0-3.352-2.033-6.07-4.54-6.07s-4.54 2.718-4.54 6.07c0 3.353 2.033 6.07 4.54 6.07Z"/><path fill="#263238" d="M357.641 200.08c0 2.71-.82 4-3 4s-3-1.27-3-4 .83-4 3-4 3 1.28 3 4Z"/><path fill="#fff" d="M357.641 200.08c0 2.71-.82 4-3 4s-3-1.27-3-4 .83-4 3-4 3 1.28 3 4Z" opacity=".5"/><path fill="#263238" d="M355.3 203.69c1.491 0 2.7-1.616 2.7-3.61 0-1.994-1.209-3.61-2.7-3.61s-2.7 1.616-2.7 3.61c0 1.994 1.209 3.61 2.7 3.61Z"/><path fill="#fff" d="M355.3 203.69c1.491 0 2.7-1.616 2.7-3.61 0-1.994-1.209-3.61-2.7-3.61s-2.7 1.616-2.7 3.61c0 1.994 1.209 3.61 2.7 3.61Z" opacity=".7"/><path fill="#263238" d="M170.08 410.97h-4.79l-2.1-125.3h8.99l-2.1 125.3Z"/><path fill="#fff" d="M170.08 410.97h-4.79l-2.1-125.3h8.99l-2.1 125.3Z" opacity=".7"/><path fill="#263238" d="M222.99 410.97h-4.8l-2.1-125.3h9l-2.1 125.3Z"/><path fill="#fff" d="M222.99 410.97h-4.8l-2.1-125.3h9l-2.1 125.3Z" opacity=".7"/><path fill="#263238" d="M258.12 283.57h-90.44v9.8h90.44v-9.8Z"/><path fill="#fff" d="M258.12 283.57h-90.44v9.8h90.44v-9.8Z" opacity=".5"/><path fill="#263238" d="M311.17 283.57h-53.04v9.8h53.04v-9.8Z"/><path fill="#fff" d="M311.17 283.57h-53.04v9.8h53.04v-9.8Z" opacity=".5"/><path fill="#263238" d="M313.43 410.97h-4.8l-2.1-125.3h8.99l-2.09 125.3Z"/><path fill="#fff" d="M313.43 410.97h-4.8l-2.1-125.3h8.99l-2.09 125.3Z" opacity=".7"/><path fill="#263238" d="M318.36 277.27h-70.62a2.65 2.65 0 0 0-2.65 2.65v3.1a2.65 2.65 0 0 0 2.65 2.65h70.62a2.65 2.65 0 0 0 2.65-2.65v-3.1a2.65 2.65 0 0 0-2.65-2.65Z"/><path fill="#263238" d="M254.26 277.27h-95.87a2.65 2.65 0 0 0-2.65 2.65v3.1a2.65 2.65 0 0 0 2.65 2.65h95.87a2.65 2.65 0 0 0 2.65-2.65v-3.1a2.65 2.65 0 0 0-2.65-2.65Z"/><path fill="#fff" d="M254.26 277.27h-95.87a2.65 2.65 0 0 0-2.65 2.65v3.1a2.65 2.65 0 0 0 2.65 2.65h95.87a2.65 2.65 0 0 0 2.65-2.65v-3.1a2.65 2.65 0 0 0-2.65-2.65Z" opacity=".2"/><path fill="#263238" d="M260.52 410.97h-4.79l-2.1-125.3h8.99l-2.1 125.3Z"/><path fill="#fff" d="M260.52 410.97h-4.79l-2.1-125.3h8.99l-2.1 125.3Z" opacity=".7"/><path fill="#00ACC1" d="M258 277.28a1.404 1.404 0 0 1-1.4-1.4 1.404 1.404 0 0 1 1.4-1.4h38.15a1.396 1.396 0 0 1 1.4 1.4 1.4 1.4 0 0 1-1.4 1.4H258Z"/><path fill="#00ACC1" d="m261.28 274.86-5.08-36.14a2.861 2.861 0 0 0-2.75-2.4h-4.86v40.95h10.62a1.997 1.997 0 0 0 2.07-2.41Z"/><path fill="#00ACC1" d="M257.11 277.27H214a2.854 2.854 0 0 1-2.74-2.41l-5.08-36.14a2.01 2.01 0 0 1 .445-1.709 2 2 0 0 1 1.625-.691h43.13a2.865 2.865 0 0 1 2.75 2.4l5.08 36.14a1.987 1.987 0 0 1-.448 1.729 1.996 1.996 0 0 1-1.652.681Z"/><path fill="#fff" d="M257.11 277.27H214a2.854 2.854 0 0 1-2.74-2.41l-5.08-36.14a2.01 2.01 0 0 1 .445-1.709 2 2 0 0 1 1.625-.691h43.13a2.865 2.865 0 0 1 2.75 2.4l5.08 36.14a1.987 1.987 0 0 1-.448 1.729 1.996 1.996 0 0 1-1.652.681Z" opacity=".7"/><path fill="#fff" d="M234.77 255.81a1.871 1.871 0 0 1-1.89 2.2 2.63 2.63 0 0 1-2.51-2.2 1.871 1.871 0 0 1 1.89-2.2 2.618 2.618 0 0 1 1.653.646c.458.402.761.952.857 1.554Z" opacity=".7"/><path fill="#00ACC1" d="M197.75 256.46h-16.66a1.808 1.808 0 0 0-1.78 2.13v.15a4.632 4.632 0 0 0-2.52.08c-3 .9-3.09 3.58-2.19 6.59.9 3.01 2.44 5.2 5.45 4.3a5.434 5.434 0 0 0 1.37-.64 8.447 8.447 0 0 0 2.8 3.53v2.2h10.34v-2.2a8.371 8.371 0 0 0 3.32-5.26l1.62-8.75a1.82 1.82 0 0 0-.383-1.469 1.811 1.811 0 0 0-1.367-.661Zm-18.09 11.34c-2 .59-3-.85-3.58-2.83-.58-1.98-.53-3.73 1.44-4.32a2.89 2.89 0 0 1 2.2.16l1.17 6.32a3.237 3.237 0 0 1-1.23.67Z"/><path fill="#fff" d="M197.75 256.46h-16.66a1.808 1.808 0 0 0-1.78 2.13v.15a4.632 4.632 0 0 0-2.52.08c-3 .9-3.09 3.58-2.19 6.59.9 3.01 2.44 5.2 5.45 4.3a5.434 5.434 0 0 0 1.37-.64 8.447 8.447 0 0 0 2.8 3.53v2.2h10.34v-2.2a8.371 8.371 0 0 0 3.32-5.26l1.62-8.75a1.82 1.82 0 0 0-.383-1.469 1.811 1.811 0 0 0-1.367-.661Zm-18.09 11.34c-2 .59-3-.85-3.58-2.83-.58-1.98-.53-3.73 1.44-4.32a2.89 2.89 0 0 1 2.2.16l1.17 6.32a3.237 3.237 0 0 1-1.23.67Z" opacity=".5"/><path fill="#00ACC1" d="M195 277.39h-11.19a4.2 4.2 0 0 1-2-.5l-3.8-2.08a.77.77 0 0 1 .37-1.44h22a.772.772 0 0 1 .736.578.772.772 0 0 1-.366.862l-3.8 2.08c-.6.322-1.27.494-1.95.5Z"/><path fill="#fff" d="M195 277.39h-11.19a4.2 4.2 0 0 1-2-.5l-3.8-2.08a.77.77 0 0 1 .37-1.44h22a.772.772 0 0 1 .736.578.772.772 0 0 1-.366.862l-3.8 2.08c-.6.322-1.27.494-1.95.5Z" opacity=".4"/><path fill="#00ACC1" d="M210.469 91H66.611A7.611 7.611 0 0 0 59 98.611v107.414a7.61 7.61 0 0 0 7.611 7.611H210.47a7.61 7.61 0 0 0 7.611-7.611V98.611A7.61 7.61 0 0 0 210.469 91Z"/><path fill="#263238" d="M128.881 101.312s-7.379-2.251-9.02 13.581c-1.642 15.832-12.971 21.105-.945 26.915 12.027 5.81 23.647-.552 28.368 0s13.247-2.542 12.71-10.356c-.538-7.815-14.438-30.503-14.438-30.503l-16.675.363ZM189.03 171.004c-2.6 8.715-10.066 31.81-15.774 31.011-7.016-.959-11.853-26.145-11.853-26.145l1.932-30.503s7.742 0 11.141 38.985l8.192-17.633 6.362 4.285Z"/><path fill="#EEC1BB" d="m183.362 166.98 2.905-6.333 4.561-3.733 2.469-2.658a4.362 4.362 0 0 1 5.041-.988l1.452.683a4.357 4.357 0 0 1 2.484 4.56l-.77 5.52-12.346 3.994s-.349 1.235-.944 3.24l-4.852-4.285Z"/><path fill="#263238" d="m182.203 164.759 8.657 5.926-.668 3.283-9.572-6.798 1.583-2.411Z"/><path fill="#fff" d="m182.203 164.759 8.657 5.926-.668 3.283-9.572-6.798 1.583-2.411Z" opacity=".2"/><path fill="#263238" d="M116.244 213.635s-1.322-34.614-11.736-65.364a164 164 0 0 1 58.827-2.905s4.837 22.035-.973 68.269h-46.118Z"/><path fill="#fff" d="M116.244 213.635s-1.322-34.614-11.736-65.364a164 164 0 0 1 58.827-2.905s4.837 22.035-.973 68.269h-46.118Z" opacity=".2"/><path fill="#EEC1BB" d="M123.594 194.289c1.758-.668 2.789-1.089 2.789-1.089l7.815-3.632 5.81-5.519a3.425 3.425 0 0 0 1.042-2.7 3.42 3.42 0 0 0-1.405-2.529l-3.675-2.586a3.43 3.43 0 0 0-4.837.872l-6.566 9.775s-1.452.422-3.805 1.003l2.832 6.405Z"/><path fill="#263238" d="M123.739 195.189c-8.512 3.21-34.018 11.998-41.688 5.084-9.252-8.352 22.456-52 22.456-52 8.469 9.572 5.418 19.464 5.418 19.464s-16.311 17.212-14.772 21.453c1.351 3.792 18.113 0 25.782-1.902l2.804 7.901Z"/><path fill="#263238" d="m121.937 186.243 3.632 9.195-2.905 1.699-3.748-10.894h3.021Z"/><path fill="#fff" d="m121.937 186.243 3.632 9.195-2.905 1.699-3.748-10.894h3.021Z" opacity=".2"/><path fill="#EEC1BB" d="M144.059 144.004h-2.701a17.418 17.418 0 0 1 .741-8.207l-10.604-10.806c.538 4.938.77 14.293-1.54 19.434-1.452.102-2.803.218-4.125.349.668 1.946 3.225 6.9 12.027 6.9s7.176-5.564 6.202-7.67Z"/><path fill="#000" d="m133.484 128.956-1.22 3.268a17.714 17.714 0 0 0 8.918 8.251c.127-1.589.434-3.158.915-4.677l-7.03-7.176-1.583.334Z" opacity=".1"/><path fill="#EEC1BB" d="M126.094 116.898c2.571 9.79 3.442 14.002 9.456 18.098 9.034 6.188 20.509.901 20.931-9.47.392-9.34-3.864-23.793-14.351-25.826a13.834 13.834 0 0 0-12.764 4.163 13.84 13.84 0 0 0-3.295 6.101 13.838 13.838 0 0 0 .081 6.934h-.058Z"/><path fill="#EEC1BB" d="M125.293 125.192a7.375 7.375 0 0 0 4.357 3.616c2.484.756 3.777-1.452 3.123-3.834-.581-2.136-2.571-5.099-5.098-4.808a3.354 3.354 0 0 0-2.382 5.026Z"/><path fill="#D58745" d="M148.663 116.768a21.848 21.848 0 0 0 3.878 4.59 3.477 3.477 0 0 1-2.759 1.118l-1.119-5.708Z"/><path fill="#2E353A" d="M139.935 113.094a.468.468 0 0 1-.204 0 .406.406 0 0 1-.13-.552 4.712 4.712 0 0 1 3.631-2.353.42.42 0 0 1 .421.392.407.407 0 0 1-.377.421 3.93 3.93 0 0 0-2.993 1.961.338.338 0 0 1-.155.116.353.353 0 0 1-.193.015ZM149.55 108.911a.424.424 0 0 1-.116-.33.411.411 0 0 1 .047-.15.405.405 0 0 1 .244-.188 4.742 4.742 0 0 1 4.27.755.413.413 0 0 1 .189.284.41.41 0 0 1-.233.432.413.413 0 0 1-.479-.106 3.89 3.89 0 0 0-3.529-.581.423.423 0 0 1-.393-.116ZM142.692 116.548c.16.814.712 1.453 1.249 1.279.538-.175.828-.843.654-1.656-.175-.814-.712-1.366-1.235-1.264-.523.102-.828.828-.668 1.641ZM151.803 114.763c.145.799.712 1.365 1.235 1.264.522-.102.828-.828.668-1.642-.16-.813-.712-1.38-1.235-1.278-.523.102-.813.842-.668 1.656Z"/><path fill="#2E353A" d="m152.267 113.196 1.83-.929s-.697 1.699-1.83.929ZM143.087 114.996l1.815-.93s-.639 1.7-1.815.93ZM150.667 125.059a39.255 39.255 0 0 0-6.769.204 4.139 4.139 0 0 0 4.489 2.062c2.542-.232 2.28-2.266 2.28-2.266Z"/><path fill="#DE5753" d="M147.095 126.369a5.136 5.136 0 0 1 2.905.421 2.901 2.901 0 0 1-1.539.537 5.138 5.138 0 0 1-2.905-.421 2.901 2.901 0 0 1 1.539-.537Z"/><path fill="#fff" d="M150.436 125.046a.945.945 0 0 1-.697.726c-1.45.113-2.907.113-4.357 0a1.461 1.461 0 0 1-1.192-.567 43.565 43.565 0 0 1 6.246-.159Z"/><path fill="#263238" d="M128.88 124.552s4.357-3.66 3.384-11.46c-.973-7.8 8.904-.523 10.88-7.059 1.975-6.537 10.487 6.725 14.67-1.264s-14.903-9.935-16.806-7.626c-1.902 2.31-27.99-1.452-12.128 27.409Z"/><path fill="#fff" d="M205.24 189.367H71.826a3.457 3.457 0 0 0-3.457 3.457v6.565a3.457 3.457 0 0 0 3.457 3.457H205.24a3.457 3.457 0 0 0 3.457-3.457v-6.565a3.456 3.456 0 0 0-3.457-3.457Z"/><path fill="#263238" d="M85.946 199.474v-6.725l4.213 3.37-4.213 3.355ZM96.94 198.092l1.844-1.947-1.845-1.96v3.907ZM98.786 194.259v3.777h.828v-3.777h-.828ZM79.148 194.185l-1.83 1.96 1.83 1.947v-3.907ZM77.314 198.036v-3.777h-.842v3.777h.842ZM202.19 195.162h-89.722v1.976h89.722v-1.976Z"/><path fill="#00ACC1" d="M154.967 191.691h-3.196v8.831h3.196v-8.831Z"/></svg>